<svg xmlns="http://www.w3.org/2000/svg" width="168" height="93" viewBox="0 0 168 93" fill="none">
<path d="M94.4495 52.813C93.387 40.8831 87.3974 30.354 78.5431 23.2567C76.7253 21.7996 74.7909 20.4821 72.7504 19.3329C66.5582 15.8475 59.4185 13.8548 51.8202 13.8548C39.3052 13.8548 28.0289 19.2536 20.1952 27.8416C22.0365 29.3283 24.0248 30.6376 26.1392 31.7411C32.6497 25.0333 41.7539 20.8538 51.8202 20.8538C57.7715 20.8538 63.3852 22.3179 68.3285 24.8975C70.4427 26.0006 72.4312 27.3105 74.2725 28.7971C81.6291 34.7363 86.5996 43.5157 87.4795 53.4577C87.639 55.2599 89.1547 56.6386 90.9645 56.6386C93.0273 56.6384 94.6349 54.8662 94.4523 52.8132L94.4495 52.813Z" fill="#28ECA4"/>
<path d="M68.3262 24.8973C61.8156 31.6051 52.7115 35.7846 42.6453 35.7846C36.8966 35.79 31.2322 34.4025 26.1373 31.7409C24.0229 30.6378 22.0348 29.3279 20.1933 27.8414C12.8352 21.9023 7.86652 13.1224 6.98631 3.18087C6.8268 1.37873 5.31113 0 3.5013 0C1.43924 0 -0.168793 1.77362 0.0142072 3.82546C1.07655 15.7554 7.06598 26.2844 15.9206 33.3817C17.7385 34.8389 19.6728 36.156 21.7133 37.3056C27.9054 40.7902 35.0452 42.7833 42.6435 42.7833C55.1587 42.7833 66.435 37.3849 74.2682 28.7969C72.427 27.3105 70.4386 26.0008 68.3241 24.8975L68.3262 24.8973ZM22.8863 85.4692C22.8863 90.7498 18.2939 92.9984 13.331 92.9984C8.73751 92.9984 5.24555 91.253 3.45381 87.5338L9.4262 84.1369C10.0232 85.8824 11.3101 86.8466 13.331 86.8466C14.9847 86.8466 15.8116 86.3416 15.8116 85.4207C15.8116 82.895 4.51041 84.2273 4.51041 76.2831C4.51041 71.2776 8.73752 68.7539 13.5143 68.7539C17.2361 68.7539 20.5421 70.407 22.473 73.667L16.5926 76.8359C15.949 75.6418 15.0305 74.8153 13.5143 74.8153C12.3205 74.8153 11.5834 75.2744 11.5834 76.101C11.5832 78.7194 22.8844 76.9739 22.8844 85.4696L22.8863 85.4692ZM28.3979 63.2433C28.3979 60.9927 30.2811 59.11 32.5328 59.11C34.7845 59.11 36.6677 60.9925 36.6677 63.2433C36.6677 65.494 34.7838 67.3765 32.5328 67.3765C30.2818 67.3765 28.3979 65.4933 28.3979 63.2433ZM29.0873 69.3964H35.978V92.3571H29.0873V69.3964ZM43.7861 58.8346H50.6773V92.3571H43.7861V58.8346ZM83.2011 80.8768C83.2011 87.7188 78.2396 93 72.2216 93C69.1438 93 66.893 91.9435 65.3768 90.2005V92.3587H58.4861V60.2104H65.3768V71.5529C66.893 69.808 69.1438 68.7521 72.2216 68.7521C78.2396 68.7521 83.2011 74.033 83.2011 80.8754V80.8768ZM76.3104 80.8768C76.3104 77.4338 74.0132 75.2742 70.8435 75.2742C67.6739 75.2742 65.3766 77.4324 65.3766 80.8768C65.3766 84.3211 67.6739 86.479 70.8435 86.479C74.0132 86.479 76.3104 84.3207 76.3104 80.8768ZM101.529 86.8462C103.413 86.8462 105.02 86.1114 105.939 85.1013L111.453 88.2695C109.202 91.3924 105.802 92.9998 101.438 92.9998C93.5832 92.9998 88.7134 87.7186 88.7134 80.8766C88.7134 74.0346 93.6749 68.7533 100.933 68.7533C107.64 68.7533 112.601 73.9421 112.601 80.8766C112.601 81.8408 112.51 82.7591 112.326 83.6314H96.0175C96.8904 86.0196 99.0037 86.8462 101.532 86.8462H101.529ZM105.755 78.4886C105.02 75.8254 102.953 74.8607 100.884 74.8607C98.2652 74.8607 96.518 76.1464 95.8768 78.4886H105.755ZM117.88 80.8766C117.88 74.0339 123.07 68.7533 130.054 68.7533C134.51 68.7533 138.461 71.095 140.436 74.6312L134.418 78.121C133.635 76.5136 131.983 75.5475 129.962 75.5475C126.976 75.5475 124.77 77.7058 124.77 80.8745C124.77 84.0432 126.976 86.2009 129.962 86.2009C131.983 86.2009 133.683 85.2367 134.418 83.6274L140.438 87.0756C138.463 90.6576 134.558 92.9998 130.056 92.9998C123.072 93 117.881 87.7189 117.881 80.8766H117.88ZM160.192 92.3571L152.842 82.2087V92.3571H145.949V60.2104H152.84V79.4514L159.731 69.3946H167.77L159.409 80.8754L168 92.3552H160.192V92.3571Z" fill="#2449C1"/>
</svg>