<?xml version="1.0" encoding="UTF-8"?>
<svg version="1.1" viewBox="0 0 2000 2000" width="1280" height="1280" xmlns="http://www.w3.org/2000/svg">
<path transform="translate(967,623)" d="m0 0 25 1 15 3 12 5 15 8 14 11 11 11 10 14 8 16 5 15 3 19v5l15-7 16-4 11-1h16l19 3 19 7 14 8 11 8 16 16 10 15 8 16 5 17 2 10v27l-5 21-5 13-8 14-9 12-13 13-8 5-1 2 4 2 7 7 8 7 9 10 9 14 7 15 5 16 2 14v18l-2 16-5 17-8 16-12 17-4 5-16 14-13 8-13 6-16 5-9 2-19 1-16-2-20-6-14-6-1 13-3 15-5 14-6 12-9 12-12 13-14 11-18 10-14 5-18 3h-26l-17-3-19-7-15-9-10-8-9-8-11-14-6-10-5-10-5-17-3-16v-4l-12 5-24 6h-25l-24-6-21-10-14-10-10-9-8-9-10-15-7-15-5-17-1-6v-34l4-16 5-14 7-13 8-11 9-11 11-9 4-4-9-6-13-12-10-12-8-14-6-14-5-19v-32l4-17 6-16 11-19 10-11 2-3h2v-2l11-9 10-7 14-7 15-5 11-2h31l18 4 13 5 10 5-1-3v-8l3-15 6-17 9-17 11-14 10-10 14-10 15-8 15-5 9-2zm-4 57-2 6-17 16-9 13-7 16-3 16-3 17 1 5 10 7 18 10 17 10h5l13-8 23-13 8-4 1-5v-15l-2-15-4-13-6-11-8-10-8-8-10-7-14-7zm-167 111-14 3-12 5-10 6-4 4 4 23 6 16 5 9 8 10 7 7 16 11 6 4 6-2 42-24 4-5 1-30 1-14-5-5-14-9-13-6-14-3zm323 0-14 4-16 8-4 3-1 8v44l3 5 15 9 18 11 6 5 6-1 14-8 10-8 8-8 8-13 4-10 4-20v-14l-2-5-19-7-12-3zm-101 54-23 13-16 9-3 1h-13l-16-8-19-11h-2v29l-2 13-3 6-5 6-16 10-22 13 5 5 17 9 15 10 6 10 1 3 2 46 5-3 10-7 17-10 10-4h11l8 3 15 9 14 8 2-1v-37l3-9 4-6 5-4 27-16 10-6v-2l-10-4-25-15-5-4-4-6-1-4-1-46zm-205 120-14 7-9 7-11 11-7 10-6 12-3 11-1 8v16l3 11 3 1 6-1 19 4 8 1h14l17-4 23-9 1-3v-55l-10-7-20-12-10-7zm315 1-28 16-16 10-2 6-1 38h-5l6 7 10 7 15 8 10 3 13 2h8l16-3 12-4 15-8 8-7-1-3h-3l-2-9-5-17-8-16-8-10-7-7-14-9-9-4zm-205 43m46 48-29 16-16 8-1 8v17l3 15 5 13 7 11 9 10 9 8 15 8 4-1 11-8 12-12 9-14 5-12 3-15 1-25-4-4-15-9-23-13z" fill="#234147"/>
<path transform="translate(810,890)" d="m0 0 8 1 13 6 7 6 5 3v2l4 1 6 4v2l6 2 12 9-1 4-21 13-16 10-15 9v5l-5-1-14 7-9 7-10 10-7 10-6 12-3 11-1 8v16l2 11 9-1 19 4 8 1h14l17-4 20-8h3l1-58h1l1 28 6-9h2l2-6 10-7 4-2 5-5 11-9 4-4 8-2 8 5 4 7 2-1 1 21 11-8 13-8 13-7 4-1h11l8 3 15 9 14 8 3 2 5 4 15 9 33 18 11 5 11 7 15 8 10 3 13 2h8l16-3 12-4 15-8 7-6v-2l-3-1-8-26-8-16-8-10-10-9-12-7-3-2v-5l9-6 15-9 23-13 13-6 6-1 7 7 8 7 9 10 9 14 7 15 5 16 2 14v18l-2 16-5 17-8 16-12 17-4 5-16 14-13 8-13 6-16 5-9 2-19 1-16-2-20-6-14-6-1 13-3 15-5 14-6 12-9 12-12 13-14 11-18 10-14 5-18 3h-26l-17-3-19-7-15-9-10-8-9-8-11-14-6-10-5-10-5-17-3-16v-4l-12 5-24 6h-25l-24-6-21-10-14-10-10-9-8-9-10-15-7-15-5-17-1-6v-34l4-16 5-14 7-13 8-11 9-11 11-9 7-5 16-8 17-9 15-9 15-8zm113 119m46 48-29 16-16 8-1 8v17l3 15 5 13 7 11 9 10 9 8 15 8 4-1 11-8 12-12 9-14 5-12 3-15 1-25-4-4-15-9-23-13z" fill="#399197"/>
<path transform="translate(967,623)" d="m0 0 25 1 15 3 12 5 15 8 14 11 11 11 10 14 8 16 5 15 3 19v5l15-7 16-4 11-1h16l19 3 19 7 14 8 11 8 16 16 10 15 8 16 2 9-9 4-5 5-21 14-8 5h-2v2l-5 3h-5l-2 4-8 8-4 1 4-16 2-11v-27l-5-12-8-14-11-12-8-7-10-6-19-7-11-2h-13l-8 2-1 2-1 43-1 11-3 7-10 7-13 10-8 4-10 7-6 4-7 5-5-1-1-7-2-52-1-9v-15l-2-15-4-13-6-11-8-10-7-7-10-7-14-7-3-2-5-2-14-2-13 1-14 2-17 7-10 7-10 9-9 12-6 13-2 9 10 7 17 10 22 13 11 7 1 3h2l-1 5-7 5-5 6-18 11-7 5h-2l-2 4-5 2-9 1-9-2-11-7-15-8-13-4-6-1h-20l-14 3-12 5-10 6-3 3v6l-1-2h-6l-7 8-8 13-5 12-4 13-1 14 4 32v8h-3l-8-8-9-12-9-17-5-15-3-12v-32l4-17 6-16 11-19 10-11 2-3h2v-2l11-9 10-7 14-7 15-5 11-2h31l18 4 13 5 10 5-1-3v-8l3-15 6-17 9-17 11-14 10-10 14-10 15-8 15-5 9-2z" fill="#3AB0BC"/>
<path transform="translate(810,890)" d="m0 0 8 1 13 6 7 6 5 3v2l4 1 6 4v2l6 2 12 9-1 4-21 13-16 10-15 9v5l-5-1-14 7-9 7-10 10-7 10-6 12-3 11-1 8v16l2 11 9-1 19 4 8 1h14l17-4 20-8h3l1-58h1l1 28 6-9h2l2-6 10-7 4-2 5-5 11-9 4-4 8-2 8 5 4 7 2-1 1 21 11-8 13-8 13-7 4-1h11l8 3 11 7-3 3-2 12 1 13 2 16 1 14 2 12-1 6-6-2-16-9-5-1-29 16-15 7-1 8v17l3 15 5 13 5 8-1 2-2-1v-3l-10 4h-2l-2 4-11 7-12 8-7 6-4 3h-4l-1 10-3 3-7-10-7-14-5-17-3-16v-4l-12 5-24 6h-25l-24-6-21-10-14-10-10-9-8-9-10-15-7-15-5-17-1-6v-34l4-16 5-14 7-13 8-11 9-11 11-9 7-5 16-8 17-9 15-9 15-8z" fill="#399197"/>
<path transform="translate(810,890)" d="m0 0 8 1 13 6 7 6 5 3v2l4 1 6 4v2l6 2 12 9-1 4-21 13-16 10-15 9v5l-5-1-14 7-9 7-10 10-7 10-6 12-3 11-1 8v19l-2 7 2 12h2l3 9 2 5 3 3 4 6v3l4 2 5 6 4 4 3 1 4 4 11 7 6 2 5 1v2l11 1 14 3-4 2-20 5h-25l-24-6-21-10-14-10-10-9-8-9-10-15-7-15-5-17-1-6v-34l4-16 5-14 7-13 8-11 9-11 11-9 7-5 16-8 17-9 15-9 15-8z" fill="#3AB0BC"/>
<path transform="translate(1201,928)" d="m0 0 7 6 10 9 8 9 9 14 7 15 5 16 2 14v18l-2 16-5 17-8 16-12 17-4 5-16 14-13 8-13 6-16 5-9 2h-5l-5-1v-2l-5-2-6-4-6-12-4-13-4-17-2-16v-6l1-2 15 2h8l16-3 12-4 15-8 7-6v-2l-3-1-8-26-8-16-8-10-10-9-12-7-3-2v-5l9-6 15-9 23-13 13-6z" fill="#3AB0BC"/>
<path transform="translate(1068,680)" d="m0 0 4 1 7 16 4 14 2 15v5l15-7 16-4 11-1h16l19 3 19 7 14 8 11 8 16 16 10 15 8 16 2 9-9 4-5 5-21 14-8 5h-2v2l-5 3h-5l-2 4-8 8-4 1 4-16 2-11v-27l-5-12-8-14-11-12-8-7-10-6-19-7-11-2h-13l-8 2-1 2-1 43-1 11-3 7-10 7-13 10-8 4-10 7-6 4-7 5-5-1-1-7-2-52-1-9v-15l-2-15-3-10 1-5h2l5-8 6-5 9-5 16-9 5-4h2l2-5 3-3z" fill="#399197"/>
<path transform="translate(967,623)" d="m0 0 25 1 15 3 12 5 15 8 14 11 11 11 10 14 2 5-4 1-5 2-4 6-10 7-13 7-10 6-3 3h-2l-2 4-2 5-3-1v2h-2l-6-11-8-10-7-7-10-7-14-7-3-2-5-2-14-2-13 1-14 2-17 7-10 7-10 9-5 6-5 5-4 8-1-2h-3l-1-7 5-16 8-17 10-14 9-10 10-9 14-9 15-7 19-5z" fill="#3AB0BC"/>
<path transform="translate(810,890)" d="m0 0 8 1 13 6 7 6 5 3v2l4 1 6 4v2l6 2 12 9-1 4-21 13-16 10-15 9v5l-5-1-14 7-6 4h-3v-2l-2-1-4-4v-2l-5-2-4-3-5-2-5-4-8-6-7-5-8-3-9-1-9 5v-3l4-5 11-9 7-5 16-8 17-9 15-9 15-8z" fill="#399197"/>
<path transform="translate(788,719)" d="m0 0h31l18 4 3 1-1 6-7 5-14 7-16 12-10 7-3 3-6 2v2l-9 6-8 6-6 4-5 1-1 3-6 3-10 7-6 4-1 2-7 3-9 6h-2v2l-5 2-1 4-6 5-6 2v2l-3-1v-12l4-17 6-16 11-19 10-11 2-3h2v-2l11-9 10-7 14-7 15-5z" fill="#399197"/>
<path transform="translate(966,984)" d="m0 0h11l8 3 11 7-3 3-2 12 1 13 2 16 1 14 2 12-1 6-6-2-16-9-5-1-29 16-15 7h-3l-1-4v-71l2-4 1 7 10-8 15-9 13-7z" fill="#234147"/>
<path transform="translate(873,707)" d="m0 0v3l-8 16-2 9 10 7 17 10 22 13 11 7 1 3h2l-1 5-7 5-5 6-18 11-7 5h-2l-2 4-5 2-9 1-9-2-11-7-15-8-13-4-6-1-21-1-1-5 8-6h2v-2l4-1v-2l7-4 18-11 14-11h2v-2l6-4 4-2 1-4-1-3v-12l2-9 2 3-1 2h4l3-6z" fill="#399197"/>
<path transform="translate(856,1043)" d="m0 0h2l1 2v69l-2 5-1 1h-25l-15-4-12-5-11-7-10-9-8-10-6-10-4-11 1-5 4-2 7 1 24 4h14l17-4 20-8h3z" fill="#234147"/>
<path transform="translate(1188,1401)" d="m0 0h17l5 5 7 11 10 14 4 4 7-10 9-13 8-11h18v74l-3 1h-18l-1-35h-2l-2 5-7 9-5 4h-8l-5-3-6-7-5-7-2-1 1 34-3 1h-19z" fill="#3BB0BC"/>
<path transform="translate(915,1251)" d="m0 0 13 1 11 4 8 6 7 8 4 10 1 4v14l-4 11-4 6-8 8-10 5-8 2h-13l-11-3-9-5-8-8-5-10-2-7v-13l3-10 6-9 8-7 11-5zm-3 21-8 5-4 8v12l6 9 7 3h10l8-4 5-8v-12l-3-6-6-6-3-1z" fill="#3BB0BC"/>
<path transform="translate(779,1252)" d="m0 0 21 1v27h24v-28l21 1v74l-6 1h-15l-1-3v-25h-22l-1 27-1 1h-20l-1-3z" fill="#3BB0BC"/>
<path transform="translate(1058,1108)" d="m0 0 13 6 8 5 1 5-1 5h-3l-1 4-9 14-11 12-13 9-13 6-6 2-13 2h-17l-13-3-1-4 6-7 3-5 9-9 4-5 5-2h4v-2l5-2 2-4 20-12 7-4 6-5h3v-2l5-2z" fill="#234147"/>
<path transform="translate(1101,1400)" d="m0 0 51 1v17l-1 1h-28l1 9 25 1v17l-1 1h-25v11h30v17l-13 1h-39l-1-33v-42z" fill="#3CB0BC"/>
<path transform="translate(749,1399)" d="m0 0 15 2 8 4 7 8 3 7v4l-9 1h-7l-6-2-2-5-2-1h-8l-3 3 1 5 9 4 13 4 9 6 6 9v12l-4 7-8 7-9 3-11 1-10-2-9-4-7-8-3-8 1-5h19l3 3 2 4 2 1h10l1-5-2-4-8-3-16-5-8-7-3-7v-10l4-9 7-6 8-3z" fill="#3CB0BC"/>
<path transform="translate(938,1399)" d="m0 0 11 1 9 3 9 8 5 11v2l-4 1-18-1-3-6-2-1h-10l-1 5 1 4 24 8 8 6 4 6 1 3v10l-4 8-8 7-9 3-11 1-11-2-8-4-5-5-4-7v-9h18l3 1 5 7h10l2-3-1-5-6-3-15-4-8-4-6-7-2-5v-11l4-8 7-6 8-3z" fill="#3CB1BC"/>
<path transform="translate(1088,1252)" d="m0 0 51 1 1 3-1 15h-29l1 9 25 1v17l-1 1-25 1v9l30 1v17l-2 1h-50z" fill="#3AB0BC"/>
<path transform="translate(923,1106)" d="m0 0h1l3 15 5 13 5 8-1 2-2-1v-3l-10 4h-2l-2 4-11 7-12 8-7 6-4 3h-4l-1 10-3 3-7-10-7-14-4-13v-3l7-3 13-10 10-7 5-4 17-10 6-3 2 1v-2z" fill="#3AB0BC"/>
<path transform="translate(810,1400)" d="m0 0 24 1 8 16 4 9h2l12-24 1-1h24l-2 5-12 22-9 16-3 9-1 22-7 1h-15l-1-27-7-14-13-23-5-9z" fill="#3CB0BC"/>
<path transform="translate(1210,958)" d="m0 0h2l3 9 1 6v24l-5 17-9 16-9 10-3 1v-2l-5-1-8-26-8-16-4-5v-3h2l1-5h2l2-4 11-7h2l1-3 16-8 3-2z" fill="#234147"/>
<path transform="translate(988,1253)" d="m0 0h67v20h-23l1 3-1 51-2 1h-20v-33l1-22-22 1-1-2z" fill="#3BB0BC"/>
<path transform="translate(1e3 1401)" d="m0 0h66l1 1v18l-1 1h-22v54l-5 1h-16l-1-54-1-1-20 1-2-6z" fill="#3CB0BC"/>
<path transform="translate(1201,928)" d="m0 0 7 6 10 9 8 9 9 14-1 2-1-3h-2l-3-5-1-3h-2l-2-5h-2l-7-8-7-6h-2l7 13 4 7 2 7v27l-3 14-3 8-1-3 4-14v-24l-3-15-8 3-18 9-3 3-11 7-2 3h-2l-1 5-3 1-9-9-14-9-5-2v-6l9-6 15-9 23-13 13-6z" fill="#389197"/>
<path transform="translate(1175,1252)" d="m0 0 20 1 1 1v54h30l1 1v18l-1 1h-51l-1-1z" fill="#3BB0BC"/>
<path transform="translate(757,805)" d="m0 0h2l-2 6-1 4v-2h-6l-7 8-8 13-5 12-4 13-1 14 4 32v8h-3l-8-8-9-12-9-17-5-15-1-4v-7h2l3-6 8-4 5-3 7-3 3-3 7-3 2-3h2l1-2h3v-2l4-4h2v-2h2v-2l9-7z" fill="#399197"/>
<path transform="translate(1180,731)" d="m0 0 7 1 11 7 3 3-10 3-3 1v2l-11 7-5 5h-9l-5-5-3-4 1-7 14-7 4-4z" fill="#3AB0BC"/>
<path transform="translate(819,1127)" d="m0 0 6 1 1 5-6 2h-25l-3-1 1-4 5-2z" fill="#399298"/>
<path transform="translate(935,672)" d="m0 0h8l17 3 7 3 2 3-6-1-1-2-18-3-13 1-14 2-13 5-2-1 10-5h3l1-2 12-2z" fill="#399197"/>
<path transform="translate(1094,1253)" d="m0 0h45v2l-13 1-5-1-8 1h-10l-9-1z" fill="#399197"/>
<path transform="translate(1210,1014)" d="m0 0 1 2-9 18h-2l-2 4-6 5h-2l-1 3-7 2v-2l6-5 2-2h3l9-10z" fill="#399298"/>
<path transform="translate(1026,1098)" d="m0 0h3l-1 5-5 5h-6l1-5 5-4z" fill="#3AB0BC"/>
<path transform="translate(899,683)" d="m0 0 3 1-11 7-12 11-5 5 2-5 4-7 14-9z" fill="#399197"/>
<path transform="translate(1043,1253)" d="m0 0h12v12l-3-1-1-8-8-2z" fill="#399197"/>
<path transform="translate(1079,1037)" d="m0 0 2 1-2 1z" fill="#399197"/>
</svg>
