<svg xmlns="http://www.w3.org/2000/svg" width="208" height="38" viewBox="0 0 208 38" fill="none">
  <path d="M6.6301 18.6667H9.74813V8.94017C9.74813 8.68946 9.71957 8.49003 9.66247 8.34188C9.60536 8.19373 9.52541 8.07977 9.42262 8C9.31983 7.90883 9.19419 7.85185 9.04571 7.82906C8.90866 7.79487 8.75447 7.77778 8.58315 7.77778C8.33188 7.77778 8.01779 7.81766 7.64089 7.89744C7.2754 7.97721 6.88708 8.09687 6.47591 8.25641C6.06474 8.41595 5.64786 8.61538 5.22527 8.8547C4.8141 9.08262 4.44291 9.34473 4.11169 9.64103C3.79189 9.93732 3.5292 10.2678 3.32361 10.6325C3.11803 10.9972 3.01524 11.3903 3.01524 11.812C3.01524 12.1766 3.06092 12.4672 3.15229 12.6838C3.25509 12.9003 3.3693 13.0655 3.49493 13.1795C3.62057 13.2821 3.7462 13.3504 3.87184 13.3846C4.0089 13.4074 4.10598 13.4188 4.16308 13.4188C4.44862 13.4188 4.68276 13.3732 4.8655 13.2821C5.04824 13.1795 5.21385 13.0769 5.36233 12.9744C5.5108 12.8604 5.64786 12.7578 5.77349 12.6667C5.91055 12.5641 6.06474 12.5128 6.23606 12.5128C6.37312 12.5128 6.51588 12.547 6.66436 12.6154C6.82426 12.6724 6.96703 12.7692 7.09266 12.906C7.22972 13.0427 7.34393 13.2251 7.4353 13.453C7.52667 13.6695 7.57236 13.9373 7.57236 14.2564C7.57236 14.7123 7.48099 15.1054 7.29825 15.4359C7.12692 15.7664 6.8985 16.0456 6.61296 16.2735C6.33885 16.49 6.01905 16.6553 5.65357 16.7692C5.29951 16.8718 4.94545 16.9231 4.59138 16.9231C4.04316 16.9231 3.54633 16.8319 3.1009 16.6496C2.66689 16.4558 2.29569 16.1937 1.98732 15.8632C1.67894 15.5328 1.4448 15.1453 1.2849 14.7009C1.125 14.2564 1.04505 13.7835 1.04505 13.2821C1.04505 12.4957 1.18782 11.7778 1.47335 11.1282C1.75889 10.4672 2.14721 9.87464 2.63833 9.35043C3.14087 8.82621 3.72336 8.37037 4.3858 7.98291C5.05966 7.58405 5.78492 7.25356 6.56157 6.99145C7.33822 6.72934 8.14914 6.53561 8.99432 6.41026C9.8395 6.2735 10.6847 6.20513 11.5299 6.20513C12.4664 6.20513 13.1917 6.2963 13.7056 6.47863C14.231 6.64957 14.6136 6.8604 14.8535 7.11111C15.1047 7.36182 15.2532 7.62393 15.2989 7.89744C15.3446 8.17094 15.3674 8.39886 15.3674 8.5812V18.6667H21.672V10.4444C21.672 8.5641 21.9176 6.96296 22.4087 5.64103C22.8998 4.31909 23.5337 3.24217 24.3104 2.41026C25.087 1.56695 25.955 0.957265 26.9144 0.581197C27.8738 0.193732 28.8275 0 29.7755 0C30.4265 0 31.0432 0.0512821 31.6257 0.153846C32.2196 0.245014 32.7336 0.387464 33.1676 0.581197C33.613 0.774929 33.9671 1.01994 34.2298 1.31624C34.4925 1.60114 34.6238 1.93732 34.6238 2.32479C34.6238 2.49573 34.5953 2.66097 34.5382 2.82051C34.4925 2.96866 34.424 3.10541 34.3326 3.23077C34.2412 3.35613 34.1327 3.45869 34.0071 3.53846C33.8929 3.60684 33.7729 3.64103 33.6473 3.64103C33.4417 3.64103 33.259 3.57835 33.0991 3.45299C32.9392 3.32764 32.785 3.17379 32.6365 2.99145C32.4995 2.79772 32.3624 2.59259 32.2254 2.37607C32.0883 2.14815 31.9341 1.94302 31.7628 1.76068C31.5915 1.56695 31.3973 1.40741 31.1803 1.28205C30.9633 1.1567 30.7063 1.09402 30.4094 1.09402C29.7127 1.09402 29.1587 1.28775 28.7475 1.67521C28.3364 2.05128 28.0223 2.60969 27.8053 3.35043C27.5883 4.07977 27.4455 4.99145 27.377 6.08547C27.3199 7.17949 27.2913 8.43305 27.2913 9.84615V18.6667H30.7349V20.1709H27.2913V30.5641C27.2913 30.8946 27.3599 31.1624 27.4969 31.3675C27.6454 31.5613 27.8681 31.6581 28.1651 31.6581C28.4849 31.6581 28.7818 31.6011 29.0559 31.4872C29.33 31.3732 29.5699 31.265 29.7755 31.1624L30.0667 31.7949C29.8154 31.9658 29.5185 32.1424 29.1758 32.3248C28.8446 32.5185 28.4734 32.6952 28.0623 32.8547C27.6625 33.0256 27.2285 33.1624 26.7602 33.265C26.3034 33.3789 25.8237 33.4359 25.3211 33.4359C24.5445 33.4359 23.9163 33.3333 23.4366 33.1282C22.9569 32.9231 22.5857 32.6496 22.323 32.3077C22.0603 31.9772 21.8833 31.6011 21.7919 31.1795C21.712 30.7578 21.672 30.3305 21.672 29.8974V20.1709H15.3674V28.6838C15.3674 30.2336 15.0819 31.584 14.5108 32.735C13.9512 33.886 13.1802 34.8433 12.198 35.6068C11.2158 36.3818 10.0565 36.9573 8.7202 37.3333C7.39533 37.7208 5.97337 37.9145 4.45433 37.9145C3.87184 37.9145 3.31219 37.8632 2.77539 37.7607C2.23859 37.6695 1.7646 37.5385 1.35343 37.3675C0.942262 37.1966 0.616753 36.9915 0.376905 36.7521C0.125635 36.5242 0 36.2735 0 36C0 35.7949 0.0285534 35.584 0.0856602 35.3675C0.142767 35.1624 0.228427 34.9744 0.342641 34.8034C0.456854 34.6325 0.599621 34.49 0.770941 34.3761C0.93084 34.2621 1.11358 34.2051 1.31917 34.2051C1.4448 34.2051 1.5533 34.2678 1.64468 34.3932C1.74747 34.5185 1.85026 34.6724 1.95305 34.8547C2.05584 35.0484 2.17006 35.2536 2.29569 35.4701C2.43275 35.6866 2.60407 35.886 2.80965 36.0684C3.02666 36.2621 3.28364 36.4217 3.58059 36.547C3.87755 36.6724 4.24874 36.735 4.69418 36.735C5.57362 36.735 6.32743 36.5755 6.95561 36.2564C7.5952 35.9373 8.12058 35.4872 8.53175 34.906C8.94292 34.3248 9.24559 33.6296 9.43975 32.8205C9.64533 32.0228 9.74813 31.1453 9.74813 30.188V20.1709H6.6301V18.6667Z" fill="white"/>
  <path d="M32.5166 23.0085C32.5166 21.5157 32.7336 20.2108 33.1676 19.094C33.6016 17.9658 34.1784 17.0256 34.8979 16.2735C35.6289 15.5214 36.4741 14.9573 37.4335 14.5812C38.3929 14.2051 39.398 14.0171 40.4487 14.0171C41.4995 14.0171 42.5046 14.1937 43.464 14.547C44.4234 14.8889 45.2628 15.4188 45.9824 16.1368C46.7133 16.8547 47.2958 17.7664 47.7298 18.8718C48.1639 19.9658 48.3809 21.265 48.3809 22.7692C48.3809 24.2621 48.1639 25.584 47.7298 26.735C47.2958 27.886 46.7133 28.8547 45.9824 29.641C45.2628 30.4274 44.4234 31.0256 43.464 31.4359C42.5046 31.8348 41.4995 32.0342 40.4487 32.0342C39.398 32.0342 38.3929 31.8462 37.4335 31.4701C36.4741 31.0826 35.6289 30.5128 34.8979 29.7607C34.1784 29.0085 33.6016 28.0684 33.1676 26.9402C32.7336 25.812 32.5166 24.5014 32.5166 23.0085ZM43.0528 22.8376C43.0528 21.9259 43.0185 21.0484 42.95 20.2051C42.8929 19.3504 42.773 18.5926 42.5902 17.9316C42.4075 17.2707 42.1448 16.7464 41.8022 16.359C41.4595 15.9601 41.0084 15.7607 40.4487 15.7607C39.8891 15.7607 39.4379 15.9715 39.0953 16.3932C38.7527 16.8034 38.49 17.3504 38.3072 18.0342C38.1245 18.7066 38.0046 19.4758 37.9474 20.3419C37.8903 21.208 37.8618 22.0969 37.8618 23.0085C37.8618 23.9202 37.8903 24.8148 37.9474 25.6923C38.0046 26.5584 38.1245 27.3333 38.3072 28.0171C38.49 28.7009 38.7527 29.2536 39.0953 29.6752C39.4379 30.0855 39.8891 30.2906 40.4487 30.2906C41.0084 30.2906 41.4595 30.0741 41.8022 29.641C42.1448 29.208 42.4075 28.6382 42.5902 27.9316C42.773 27.2251 42.8929 26.4274 42.95 25.5385C43.0185 24.6496 43.0528 23.7493 43.0528 22.8376Z" fill="white"/>
  <path d="M57.1525 15.4872V28.1197C57.1525 28.7236 57.2667 29.1453 57.4951 29.3846C57.7235 29.6125 58.0376 29.7265 58.4374 29.7265C58.7457 29.7265 59.0198 29.641 59.2597 29.4701C59.4995 29.2991 59.7051 29.1054 59.8764 28.8889C60.082 28.6496 60.2591 28.3704 60.4075 28.0513L60.9386 28.2906C60.7673 28.6553 60.5617 29.0541 60.3219 29.4872C60.0935 29.9202 59.7851 30.3248 59.3968 30.7009C59.0084 31.0655 58.5173 31.3732 57.9234 31.6239C57.3409 31.8746 56.6042 32 55.7134 32C55.2108 32 54.7254 31.9259 54.2571 31.7778C53.8003 31.6296 53.3891 31.396 53.0236 31.0769C52.6696 30.7578 52.384 30.359 52.167 29.8803C51.95 29.4017 51.8415 28.8262 51.8415 28.1538V15.4872H49.9227V14.2564C50.2425 14.2564 50.688 14.1766 51.259 14.0171C51.8301 13.8462 52.4126 13.567 53.0065 13.1795C53.6118 12.792 54.1715 12.2735 54.6854 11.6239C55.1994 10.9744 55.5649 10.1709 55.7819 9.21368H57.1525V14.2564H59.945C60.8587 14.2564 61.3155 14.1026 61.3155 13.7949C61.3155 13.6809 61.2584 13.6068 61.1442 13.5726C61.03 13.5271 60.8987 13.4758 60.7502 13.4188C60.6131 13.3504 60.4875 13.2593 60.3733 13.1453C60.2591 13.0313 60.202 12.8433 60.202 12.5812C60.202 12.2621 60.299 12.0114 60.4932 11.8291C60.6988 11.6467 60.9615 11.5556 61.2813 11.5556C61.4869 11.5556 61.6639 11.6011 61.8124 11.6923C61.9723 11.7721 62.1036 11.886 62.2064 12.0342C62.3092 12.1709 62.3834 12.3305 62.4291 12.5128C62.4862 12.6952 62.5148 12.8775 62.5148 13.0598C62.5148 13.8006 62.2978 14.3932 61.8638 14.8376C61.4412 15.2707 60.7559 15.4872 59.8079 15.4872H57.1525Z" fill="white"/>
  <path d="M67.5002 23.9145C67.5002 24.2792 67.5516 24.6781 67.6544 25.1111C67.7686 25.5328 67.9285 25.9601 68.1341 26.3932C68.3397 26.8262 68.5909 27.2422 68.8879 27.641C69.1963 28.0285 69.5446 28.3761 69.933 28.6838C70.3327 28.9915 70.7724 29.2365 71.2521 29.4188C71.7318 29.6011 72.2572 29.6923 72.8283 29.6923C73.228 29.6923 73.5992 29.6467 73.9418 29.5556C74.2845 29.4644 74.6043 29.339 74.9012 29.1795C75.1982 29.0199 75.4837 28.8376 75.7578 28.6325C76.032 28.416 76.3061 28.188 76.5802 27.9487L77.0085 28.359C76.7458 28.7122 76.4089 29.0997 75.9977 29.5214C75.5865 29.943 75.0897 30.3419 74.5072 30.7179C73.9247 31.0826 73.2451 31.3903 72.4685 31.641C71.6918 31.8803 70.8067 32 69.813 32C68.8194 32 67.8486 31.8234 66.9006 31.4701C65.964 31.1054 65.1303 30.5641 64.3993 29.8462C63.6683 29.1282 63.0801 28.2336 62.6347 27.1624C62.2007 26.0912 61.9837 24.8376 61.9837 23.4017C61.9837 22.3647 62.115 21.4131 62.3777 20.547C62.6404 19.6809 62.9945 18.9003 63.4399 18.2051C63.8968 17.51 64.4221 16.9003 65.0161 16.3761C65.6214 15.8519 66.2553 15.4188 66.9177 15.0769C67.5802 14.7236 68.254 14.4615 68.9393 14.2906C69.636 14.1083 70.3041 14.0171 70.9437 14.0171C71.7889 14.0171 72.5256 14.1083 73.1538 14.2906C73.782 14.4729 74.3016 14.7179 74.7128 15.0256C75.1354 15.3333 75.4495 15.6923 75.6551 16.1026C75.8606 16.5014 75.9634 16.9231 75.9634 17.3675C75.9634 17.9031 75.8092 18.3875 75.5009 18.8205C75.1925 19.2422 74.7813 19.6125 74.2674 19.9316L67.5002 23.9145ZM70.9437 20.4444C71.0922 20.3533 71.2121 20.2678 71.3035 20.188C71.4063 20.0969 71.4863 19.9943 71.5434 19.8803C71.6005 19.755 71.6404 19.6068 71.6633 19.4359C71.6976 19.2536 71.7147 19.0313 71.7147 18.7692C71.7147 18.4843 71.6804 18.1709 71.6119 17.8291C71.5548 17.4758 71.452 17.1453 71.3035 16.8376C71.155 16.5299 70.9666 16.2735 70.7382 16.0684C70.5097 15.8632 70.2356 15.7607 69.9158 15.7607C69.5047 15.7607 69.1506 15.886 68.8536 16.1368C68.5681 16.3761 68.3283 16.6895 68.1341 17.0769C67.9513 17.4644 67.8029 17.9088 67.6887 18.4103C67.5859 18.9003 67.5059 19.396 67.4488 19.8974C67.3917 20.3989 67.3574 20.8832 67.346 21.3504C67.3346 21.8063 67.3289 22.1937 67.3289 22.5128L70.9437 20.4444Z" fill="white"/>
  <path d="M84.2725 30.2564C84.2725 30.4046 84.2439 30.5812 84.1868 30.7863C84.1411 30.9915 84.0212 31.1852 83.827 31.3675C83.6443 31.5499 83.3702 31.7037 83.0047 31.8291C82.6506 31.9658 82.1709 32.0342 81.5656 32.0342C80.9603 32.0342 80.4863 31.9601 80.1436 31.812C79.801 31.6752 79.544 31.51 79.3727 31.3162C79.2128 31.1225 79.11 30.9231 79.0643 30.7179C79.0301 30.5128 79.0129 30.3476 79.0129 30.2222V8.17094C79.0129 7.84046 78.933 7.55556 78.7731 7.31624C78.6246 7.06553 78.3676 6.94017 78.0021 6.94017C77.808 6.94017 77.6367 6.97436 77.4882 7.04274C77.3511 7.09972 77.2026 7.19088 77.0427 7.31624L76.7001 6.90598C76.9628 6.68946 77.254 6.47863 77.5738 6.2735C77.8936 6.05698 78.242 5.86895 78.6189 5.7094C79.0072 5.54986 79.4184 5.4188 79.8524 5.31624C80.2864 5.21368 80.7433 5.16239 81.223 5.16239C81.9653 5.16239 82.5421 5.26496 82.9533 5.47009C83.3645 5.66382 83.6671 5.90883 83.8613 6.20513C84.0555 6.49003 84.1697 6.79772 84.2039 7.12821C84.2496 7.44729 84.2725 7.73219 84.2725 7.98291V30.2564Z" fill="white"/>
  <path d="M101.85 34.2393C102.307 34.2393 102.758 34.1538 103.203 33.9829C103.649 33.8234 104.043 33.5499 104.385 33.1624C104.74 32.7863 105.025 32.2906 105.242 31.6752C105.459 31.0598 105.568 30.3077 105.568 29.4188C105.568 28.4615 105.328 27.5328 104.848 26.6325C104.38 25.7322 103.786 24.849 103.066 23.9829C102.358 23.1054 101.587 22.2393 100.753 21.3846C99.9311 20.5185 99.1602 19.641 98.4407 18.7521C97.7325 17.8519 97.1386 16.9288 96.6589 15.9829C96.1907 15.0256 95.9565 14.0285 95.9565 12.9915C95.9565 11.9544 96.145 11.0199 96.5219 10.188C96.9102 9.34473 97.4299 8.63248 98.0809 8.05128C98.7433 7.45869 99.5086 7.00285 100.377 6.68376C101.256 6.36467 102.193 6.20513 103.186 6.20513C104.248 6.20513 105.191 6.31909 106.013 6.54701C106.847 6.76353 107.549 7.06553 108.12 7.45299C108.703 7.82906 109.142 8.2792 109.439 8.80342C109.736 9.31624 109.885 9.86325 109.885 10.4444C109.885 10.7179 109.845 11.0028 109.765 11.2991C109.685 11.584 109.559 11.8462 109.388 12.0855C109.217 12.3248 109 12.5242 108.737 12.6838C108.474 12.8433 108.166 12.9231 107.812 12.9231C107.389 12.9231 107.075 12.7977 106.87 12.547C106.675 12.2849 106.527 11.9658 106.424 11.5897C106.333 11.2137 106.253 10.8034 106.184 10.359C106.116 9.90313 106.007 9.48718 105.859 9.11111C105.71 8.73504 105.488 8.42165 105.191 8.17094C104.894 7.90883 104.46 7.77778 103.889 7.77778C103.58 7.77778 103.272 7.84615 102.964 7.98291C102.667 8.11966 102.392 8.33048 102.141 8.61538C101.901 8.88889 101.707 9.24217 101.559 9.67521C101.41 10.1083 101.336 10.6211 101.336 11.2137C101.336 11.8974 101.479 12.5641 101.764 13.2137C102.05 13.8632 102.427 14.5071 102.895 15.1453C103.363 15.7721 103.894 16.4046 104.488 17.0427C105.094 17.6695 105.705 18.3077 106.321 18.9573C106.95 19.5954 107.561 20.2564 108.155 20.9402C108.76 21.6125 109.297 22.3134 109.765 23.0427C110.233 23.7721 110.61 24.5356 110.896 25.3333C111.181 26.1311 111.324 26.9687 111.324 27.8462C111.324 29.1339 111.073 30.2849 110.57 31.2991C110.079 32.302 109.405 33.1453 108.549 33.8291C107.703 34.5242 106.71 35.0541 105.568 35.4188C104.425 35.7835 103.209 35.9658 101.918 35.9658C100.753 35.9658 99.7198 35.8177 98.8176 35.5214C97.9267 35.2365 97.1729 34.8547 96.5561 34.3761C95.9394 33.8974 95.4711 33.3504 95.1513 32.735C94.8429 32.1311 94.6887 31.5043 94.6887 30.8547C94.6887 30.5812 94.7287 30.2906 94.8087 29.9829C94.9 29.6638 95.0257 29.3732 95.1856 29.1111C95.3569 28.849 95.5682 28.6325 95.8195 28.4615C96.0707 28.2792 96.362 28.188 96.6932 28.188C97.0358 28.188 97.3099 28.2735 97.5155 28.4444C97.7325 28.6154 97.9039 28.8433 98.0295 29.1282C98.1551 29.4131 98.2579 29.7379 98.3379 30.1026C98.4178 30.4672 98.5035 30.8376 98.5948 31.2137C98.6862 31.5897 98.8004 31.9601 98.9375 32.3248C99.0745 32.6895 99.263 33.0142 99.5028 33.2991C99.7427 33.584 100.051 33.812 100.428 33.9829C100.805 34.1538 101.279 34.2393 101.85 34.2393Z" fill="white"/>
  <path d="M120.044 30.2222C120.044 30.3704 120.016 30.5527 119.958 30.7692C119.913 30.9744 119.793 31.1738 119.599 31.3675C119.416 31.5499 119.148 31.7037 118.794 31.8291C118.439 31.9658 117.96 32.0342 117.354 32.0342C116.749 32.0342 116.275 31.9601 115.932 31.812C115.59 31.6752 115.333 31.51 115.162 31.3162C114.99 31.1225 114.882 30.9231 114.836 30.7179C114.802 30.5128 114.785 30.3476 114.785 30.2222V17.0256C114.785 16.6952 114.705 16.4103 114.545 16.1709C114.396 15.9202 114.139 15.7949 113.774 15.7949C113.58 15.7949 113.414 15.8291 113.277 15.8974C113.14 15.9658 112.991 16.0627 112.832 16.188L112.472 15.7607C112.734 15.5442 113.026 15.3333 113.346 15.1282C113.677 14.9117 114.031 14.7236 114.408 14.5641C114.785 14.4046 115.19 14.2735 115.624 14.1709C116.058 14.0684 116.515 14.0171 116.995 14.0171C117.737 14.0171 118.314 14.1197 118.725 14.3248C119.136 14.5185 119.439 14.7635 119.633 15.0598C119.827 15.3447 119.941 15.6524 119.976 15.9829C120.021 16.3134 120.044 16.604 120.044 16.8547V30.2222ZM114.254 10.1197C114.254 9.80057 114.322 9.49858 114.459 9.21368C114.608 8.91738 114.807 8.66097 115.059 8.44444C115.321 8.22792 115.618 8.05698 115.95 7.93162C116.292 7.80627 116.663 7.74359 117.063 7.74359C117.451 7.74359 117.811 7.80627 118.142 7.93162C118.485 8.05698 118.782 8.22792 119.033 8.44444C119.285 8.66097 119.479 8.91738 119.616 9.21368C119.764 9.49858 119.839 9.80057 119.839 10.1197C119.839 10.4501 119.764 10.7578 119.616 11.0427C119.479 11.3276 119.285 11.5783 119.033 11.7949C118.782 12 118.485 12.1652 118.142 12.2906C117.811 12.416 117.451 12.4786 117.063 12.4786C116.663 12.4786 116.292 12.416 115.95 12.2906C115.618 12.1652 115.321 12 115.059 11.7949C114.807 11.5783 114.608 11.3276 114.459 11.0427C114.322 10.7578 114.254 10.4501 114.254 10.1197Z" fill="white"/>
  <path d="M129.672 30.2564C129.672 30.4046 129.644 30.5812 129.587 30.7863C129.541 30.9915 129.421 31.1852 129.227 31.3675C129.044 31.5499 128.77 31.7037 128.405 31.8291C128.051 31.9658 127.571 32.0342 126.965 32.0342C126.36 32.0342 125.886 31.9601 125.544 31.812C125.201 31.6752 124.944 31.51 124.773 31.3162C124.613 31.1225 124.51 30.9231 124.464 30.7179C124.43 30.5128 124.413 30.3476 124.413 30.2222V8.17094C124.413 7.84046 124.333 7.55556 124.173 7.31624C124.024 7.06553 123.768 6.94017 123.402 6.94017C123.208 6.94017 123.037 6.97436 122.888 7.04274C122.751 7.09972 122.603 7.19088 122.443 7.31624L122.1 6.90598C122.363 6.68946 122.654 6.47863 122.974 6.2735C123.294 6.05698 123.642 5.86895 124.019 5.7094C124.407 5.54986 124.818 5.4188 125.252 5.31624C125.686 5.21368 126.143 5.16239 126.623 5.16239C127.365 5.16239 127.942 5.26496 128.353 5.47009C128.764 5.66382 129.067 5.90883 129.261 6.20513C129.455 6.49003 129.57 6.79772 129.604 7.12821C129.65 7.44729 129.672 7.73219 129.672 7.98291V30.2564Z" fill="white"/>
  <path d="M143.652 23.2479C143.652 22.2564 143.601 21.3276 143.498 20.4615C143.395 19.584 143.229 18.8205 143.001 18.1709C142.773 17.51 142.481 16.9915 142.127 16.6154C141.773 16.2279 141.345 16.0342 140.842 16.0342C140.454 16.0342 140.123 16.1311 139.849 16.3248C139.586 16.5071 139.369 16.7179 139.198 16.9573C139.026 17.1966 138.901 17.4359 138.821 17.6752C138.741 17.9031 138.701 18.057 138.701 18.1368V23.2479C138.701 25.7322 138.907 27.5385 139.318 28.6667C139.74 29.7949 140.357 30.359 141.168 30.359C142.025 30.359 142.653 29.7835 143.052 28.6325C143.452 27.4815 143.652 25.6866 143.652 23.2479ZM133.441 8.17094C133.441 7.84046 133.361 7.55556 133.202 7.31624C133.053 7.06553 132.796 6.94017 132.431 6.94017C132.236 6.94017 132.065 6.97436 131.917 7.04274C131.78 7.09972 131.631 7.19088 131.471 7.31624L131.129 6.90598C131.391 6.68946 131.683 6.47863 132.002 6.2735C132.334 6.05698 132.688 5.86895 133.064 5.7094C133.441 5.54986 133.847 5.4188 134.281 5.31624C134.715 5.21368 135.172 5.16239 135.651 5.16239C136.314 5.16239 136.845 5.26496 137.245 5.47009C137.656 5.66382 137.964 5.90883 138.17 6.20513C138.387 6.49003 138.53 6.80342 138.598 7.1453C138.667 7.47578 138.701 7.78348 138.701 8.06838V15.6923C138.838 15.567 139.015 15.4131 139.232 15.2308C139.449 15.037 139.723 14.849 140.054 14.6667C140.386 14.4843 140.78 14.3305 141.236 14.2051C141.705 14.0798 142.253 14.0171 142.881 14.0171C143.612 14.0171 144.343 14.188 145.074 14.5299C145.805 14.8604 146.462 15.3846 147.044 16.1026C147.627 16.8205 148.101 17.7436 148.466 18.8718C148.832 20 149.014 21.3561 149.014 22.9402C149.014 24.1823 148.843 25.3561 148.5 26.4615C148.169 27.567 147.672 28.5356 147.01 29.3675C146.348 30.188 145.519 30.8376 144.526 31.3162C143.532 31.7949 142.379 32.0342 141.065 32.0342C139.637 32.0342 138.433 31.8063 137.45 31.3504C136.479 30.8832 135.697 30.2621 135.103 29.4872C134.509 28.7009 134.081 27.7892 133.818 26.7521C133.567 25.7151 133.441 24.6211 133.441 23.4701V8.17094Z" fill="white"/>
  <path d="M156.758 23.9145C156.758 24.2792 156.809 24.6781 156.912 25.1111C157.026 25.5328 157.186 25.9601 157.392 26.3932C157.598 26.8262 157.849 27.2422 158.146 27.641C158.454 28.0285 158.803 28.3761 159.191 28.6838C159.591 28.9915 160.03 29.2365 160.51 29.4188C160.99 29.6011 161.515 29.6923 162.086 29.6923C162.486 29.6923 162.857 29.6467 163.2 29.5556C163.542 29.4644 163.862 29.339 164.159 29.1795C164.456 29.0199 164.742 28.8376 165.016 28.6325C165.29 28.416 165.564 28.188 165.838 27.9487L166.266 28.359C166.004 28.7122 165.667 29.0997 165.256 29.5214C164.844 29.943 164.348 30.3419 163.765 30.7179C163.183 31.0826 162.503 31.3903 161.726 31.641C160.95 31.8803 160.065 32 159.071 32C158.077 32 157.106 31.8234 156.158 31.4701C155.222 31.1054 154.388 30.5641 153.657 29.8462C152.926 29.1282 152.338 28.2336 151.893 27.1624C151.459 26.0912 151.242 24.8376 151.242 23.4017C151.242 22.3647 151.373 21.4131 151.636 20.547C151.898 19.6809 152.252 18.9003 152.698 18.2051C153.155 17.51 153.68 16.9003 154.274 16.3761C154.879 15.8519 155.513 15.4188 156.176 15.0769C156.838 14.7236 157.512 14.4615 158.197 14.2906C158.894 14.1083 159.562 14.0171 160.202 14.0171C161.047 14.0171 161.783 14.1083 162.412 14.2906C163.04 14.4729 163.56 14.7179 163.971 15.0256C164.393 15.3333 164.707 15.6923 164.913 16.1026C165.119 16.5014 165.221 16.9231 165.221 17.3675C165.221 17.9031 165.067 18.3875 164.759 18.8205C164.45 19.2422 164.039 19.6125 163.525 19.9316L156.758 23.9145ZM160.202 20.4444C160.35 20.3533 160.47 20.2678 160.561 20.188C160.664 20.0969 160.744 19.9943 160.801 19.8803C160.858 19.755 160.898 19.6068 160.921 19.4359C160.955 19.2536 160.973 19.0313 160.973 18.7692C160.973 18.4843 160.938 18.1709 160.87 17.8291C160.813 17.4758 160.71 17.1453 160.561 16.8376C160.413 16.5299 160.224 16.2735 159.996 16.0684C159.768 15.8632 159.493 15.7607 159.174 15.7607C158.763 15.7607 158.408 15.886 158.112 16.1368C157.826 16.3761 157.586 16.6895 157.392 17.0769C157.209 17.4644 157.061 17.9088 156.947 18.4103C156.844 18.9003 156.764 19.396 156.707 19.8974C156.65 20.3989 156.615 20.8832 156.604 21.3504C156.592 21.8063 156.587 22.1937 156.587 22.5128L160.202 20.4444Z" fill="white"/>
  <path d="M179.115 19.9316C178.761 19.9316 178.464 19.8803 178.225 19.7778C177.985 19.6638 177.791 19.5157 177.642 19.3333C177.494 19.151 177.385 18.9516 177.317 18.735C177.248 18.5071 177.214 18.2735 177.214 18.0342C177.214 17.7265 177.231 17.4302 177.265 17.1453C177.311 16.8604 177.317 16.604 177.282 16.3761C177.259 16.1481 177.174 15.9658 177.025 15.8291C176.877 15.6923 176.614 15.6239 176.237 15.6239C175.837 15.6239 175.415 15.7379 174.969 15.9658C174.524 16.1937 174.119 16.5527 173.753 17.0427C173.388 17.5328 173.085 18.1652 172.845 18.9402C172.605 19.7037 172.485 20.6268 172.485 21.7094C172.485 22.906 172.594 24 172.811 24.9915C173.039 25.9715 173.376 26.8091 173.822 27.5043C174.267 28.1994 174.821 28.7407 175.483 29.1282C176.146 29.5043 176.922 29.6923 177.813 29.6923C178.213 29.6923 178.59 29.6467 178.944 29.5556C179.31 29.4644 179.652 29.339 179.972 29.1795C180.292 29.0199 180.594 28.8376 180.88 28.6325C181.177 28.416 181.462 28.188 181.737 27.9487L182.165 28.359C181.902 28.7122 181.565 29.0997 181.154 29.5214C180.743 29.943 180.246 30.3419 179.664 30.7179C179.081 31.0826 178.402 31.3903 177.625 31.641C176.848 31.8803 175.963 32 174.969 32C173.976 32 173.005 31.812 172.057 31.4359C171.12 31.0484 170.287 30.49 169.556 29.7607C168.825 29.0313 168.237 28.1481 167.791 27.1111C167.357 26.0627 167.14 24.8718 167.14 23.5385C167.14 22.5014 167.271 21.5499 167.534 20.6838C167.797 19.8063 168.151 19.0142 168.596 18.3077C169.053 17.6011 169.579 16.9801 170.172 16.4444C170.778 15.9088 171.412 15.4644 172.074 15.1111C172.737 14.7464 173.41 14.4729 174.096 14.2906C174.792 14.1083 175.461 14.0171 176.1 14.0171C176.945 14.0171 177.682 14.114 178.31 14.3077C178.938 14.5014 179.458 14.7578 179.869 15.0769C180.292 15.396 180.606 15.7664 180.811 16.188C181.017 16.5983 181.12 17.0256 181.12 17.4701C181.12 17.8006 181.074 18.1197 180.983 18.4274C180.903 18.7236 180.777 18.9858 180.606 19.2137C180.446 19.4302 180.24 19.6068 179.989 19.7436C179.738 19.8689 179.447 19.9316 179.115 19.9316Z" fill="white"/>
  <path d="M189.429 18.6667C189.829 18.1311 190.257 17.5897 190.714 17.0427C191.171 16.4843 191.662 15.9829 192.187 15.5385C192.713 15.094 193.284 14.7293 193.9 14.4444C194.517 14.1595 195.191 14.0171 195.922 14.0171C196.573 14.0171 197.115 14.1481 197.549 14.4103C197.983 14.661 198.332 14.9687 198.595 15.3333C198.869 15.6866 199.057 16.057 199.16 16.4444C199.274 16.8319 199.331 17.1624 199.331 17.4359C199.331 17.9373 199.263 18.4615 199.126 19.0085C199 19.5442 198.777 20.0798 198.457 20.6154C198.149 21.1396 197.732 21.6524 197.207 22.1538C196.681 22.6439 196.019 23.094 195.219 23.5043C196.293 25.7721 197.338 27.7265 198.355 29.3675C199.371 30.9972 200.348 32.3362 201.284 33.3846C202.232 34.4444 203.14 35.2251 204.008 35.7265C204.876 36.2279 205.704 36.4786 206.492 36.4786C206.629 36.4786 206.766 36.4615 206.904 36.4273C207.041 36.3932 207.166 36.3533 207.28 36.3077C207.406 36.2621 207.537 36.2051 207.674 36.1368L208 36.735C207.692 36.906 207.378 37.0655 207.058 37.2137C206.738 37.3732 206.372 37.51 205.961 37.6239C205.55 37.7379 205.076 37.8291 204.539 37.8974C204.003 37.9658 203.363 38 202.621 38C201.947 38 201.279 37.9202 200.616 37.7607C199.965 37.6011 199.308 37.3162 198.646 36.906C197.983 36.4957 197.31 35.9487 196.624 35.265C195.95 34.5812 195.254 33.7151 194.534 32.6667C193.826 31.6182 193.095 30.3704 192.341 28.9231C191.588 27.4758 190.805 25.7835 189.994 23.8462C191.091 23.037 191.953 22.2906 192.581 21.6068C193.209 20.9117 193.683 20.2849 194.003 19.7265C194.323 19.1681 194.523 18.6724 194.603 18.2393C194.683 17.8063 194.723 17.4359 194.723 17.1282C194.723 17.0826 194.717 17.0085 194.706 16.906C194.694 16.792 194.654 16.6838 194.586 16.5812C194.529 16.4786 194.437 16.3875 194.312 16.3077C194.197 16.2279 194.032 16.188 193.815 16.188C193.392 16.188 192.964 16.3704 192.53 16.735C192.096 17.0883 191.679 17.5328 191.279 18.0684C190.891 18.5926 190.537 19.1624 190.217 19.7778C189.897 20.3818 189.634 20.9345 189.429 21.4359V30.2564C189.429 30.4046 189.4 30.5812 189.343 30.7863C189.298 30.9915 189.178 31.1852 188.983 31.3675C188.801 31.5499 188.527 31.7037 188.161 31.8291C187.807 31.9658 187.327 32.0342 186.722 32.0342C186.117 32.0342 185.643 31.9601 185.3 31.812C184.957 31.6752 184.7 31.51 184.529 31.3162C184.369 31.1225 184.266 30.9231 184.221 30.7179C184.186 30.5128 184.169 30.3476 184.169 30.2222V8.17094C184.169 7.84046 184.089 7.55556 183.929 7.31624C183.781 7.06553 183.524 6.94017 183.159 6.94017C182.964 6.94017 182.793 6.97436 182.645 7.04274C182.508 7.09972 182.359 7.19088 182.199 7.31624L181.857 6.90598C182.119 6.68946 182.41 6.47863 182.73 6.2735C183.05 6.05698 183.398 5.86895 183.775 5.7094C184.164 5.54986 184.575 5.4188 185.009 5.31624C185.443 5.21368 185.9 5.16239 186.379 5.16239C187.122 5.16239 187.699 5.26496 188.11 5.47009C188.521 5.66382 188.824 5.90883 189.018 6.20513C189.212 6.49003 189.326 6.79772 189.36 7.12821C189.406 7.44729 189.429 7.73219 189.429 7.98291V18.6667Z" fill="white"/>
</svg>