<svg xmlns="http://www.w3.org/2000/svg" width="250" height="46" viewBox="0 0 250 46" fill="none">
<path d="M7.96887 22.5985H11.7165V10.882C11.7165 10.58 11.6822 10.3397 11.6135 10.1613C11.5449 9.98281 11.4488 9.84553 11.3253 9.74944C11.2017 9.63962 11.0507 9.57098 10.8723 9.54352C10.7075 9.50234 10.5222 9.48175 10.3163 9.48175C10.0143 9.48175 9.63677 9.5298 9.18376 9.62589C8.74447 9.72198 8.27774 9.86612 7.78354 10.0583C7.28935 10.2505 6.78829 10.4907 6.28037 10.779C5.78618 11.0536 5.34003 11.3693 4.94193 11.7262C4.55756 12.0831 4.24183 12.4812 3.99473 12.9205C3.74763 13.3598 3.62408 13.8334 3.62408 14.3413C3.62408 14.7806 3.67899 15.1307 3.78881 15.3915C3.91236 15.6523 4.04964 15.8514 4.20064 15.9886C4.35165 16.1122 4.50265 16.1945 4.65365 16.2357C4.81838 16.2632 4.93507 16.2769 5.00371 16.2769C5.3469 16.2769 5.62831 16.222 5.84795 16.1122C6.06759 15.9886 6.26664 15.8651 6.4451 15.7415C6.62356 15.6043 6.78829 15.4807 6.9393 15.3709C7.10403 15.2473 7.28935 15.1856 7.49526 15.1856C7.66 15.1856 7.83159 15.2267 8.01005 15.3091C8.20223 15.3778 8.37383 15.4944 8.52483 15.6592C8.68956 15.8239 8.82684 16.0435 8.93666 16.3181C9.04648 16.5789 9.10139 16.9015 9.10139 17.2859C9.10139 17.835 8.99157 18.3086 8.77193 18.7067C8.56602 19.1048 8.29146 19.4411 7.94827 19.7157C7.61881 19.9765 7.23444 20.1755 6.79516 20.3128C6.3696 20.4364 5.94405 20.4981 5.51849 20.4981C4.85957 20.4981 4.26242 20.3883 3.72704 20.1687C3.20539 19.9353 2.75925 19.6196 2.3886 19.2215C2.01796 18.8234 1.73654 18.3566 1.54435 17.8213C1.35217 17.2859 1.25607 16.7162 1.25607 16.1122C1.25607 15.165 1.42767 14.3001 1.77086 13.5177C2.11405 12.7215 2.58079 12.0076 3.17107 11.3762C3.77509 10.7447 4.47519 10.1956 5.27139 9.72885C6.08132 9.24838 6.95302 8.85028 7.8865 8.53455C8.81998 8.21881 9.79463 7.98544 10.8105 7.83444C11.8263 7.66971 12.8422 7.58734 13.858 7.58734C14.9837 7.58734 15.8554 7.69716 16.4731 7.91681C17.1046 8.12272 17.5645 8.37668 17.8527 8.67869C18.1547 8.98069 18.3332 9.29643 18.3881 9.62589C18.443 9.95535 18.4705 10.2299 18.4705 10.4495V22.5985H26.0481V12.694C26.0481 10.429 26.3432 8.50023 26.9335 6.90783C27.5238 5.31543 28.2857 4.01817 29.2192 3.01606C30.1527 2.00021 31.1959 1.26579 32.3491 0.812778C33.5022 0.34604 34.6484 0.112671 35.7878 0.112671C36.5703 0.112671 37.3116 0.174445 38.0117 0.297993C38.7255 0.407814 39.3433 0.579409 39.8649 0.812778C40.4003 1.04615 40.8259 1.34129 41.1416 1.69821C41.4573 2.0414 41.6152 2.44636 41.6152 2.9131C41.6152 3.11901 41.5809 3.31806 41.5122 3.51025C41.4573 3.68871 41.375 3.85344 41.2651 4.00444C41.1553 4.15545 41.0249 4.27899 40.8739 4.37509C40.7366 4.45745 40.5925 4.49864 40.4415 4.49864C40.1944 4.49864 39.9747 4.42313 39.7826 4.27213C39.5904 4.12113 39.405 3.9358 39.2266 3.71616C39.0619 3.48279 38.8971 3.2357 38.7324 2.97487C38.5677 2.70032 38.3823 2.45322 38.1764 2.23358C37.9705 2.00021 37.7371 1.80803 37.4763 1.65702C37.2155 1.50602 36.9066 1.43052 36.5497 1.43052C35.7123 1.43052 35.0465 1.66389 34.5523 2.13063C34.0582 2.58364 33.6806 3.25629 33.4198 4.14858C33.159 5.02715 32.9874 6.12536 32.905 7.4432C32.8364 8.76105 32.8021 10.2711 32.8021 11.9733V22.5985H36.9409V24.4105H32.8021V36.9301C32.8021 37.3282 32.8844 37.6508 33.0492 37.8979C33.2276 38.1312 33.4953 38.2479 33.8522 38.2479C34.2366 38.2479 34.5935 38.1793 34.923 38.042C35.2524 37.9047 35.5407 37.7743 35.7878 37.6508L36.1379 38.4126C35.8359 38.6186 35.479 38.8313 35.0671 39.051C34.669 39.2843 34.2229 39.4971 33.7287 39.6893C33.2482 39.8952 32.7266 40.06 32.1637 40.1835C31.6146 40.3208 31.0381 40.3894 30.4341 40.3894C29.5006 40.3894 28.7456 40.2659 28.169 40.0188C27.5925 39.7717 27.1463 39.4422 26.8306 39.0304C26.5148 38.6323 26.3021 38.1793 26.1922 37.6714C26.0961 37.1634 26.0481 36.6487 26.0481 36.127V24.4105H18.4705V34.665C18.4705 36.532 18.1273 38.1587 17.4409 39.5452C16.7683 40.9317 15.8416 42.0848 14.6611 43.0045C13.4805 43.938 12.0871 44.6312 10.481 45.0843C8.88861 45.551 7.17953 45.7844 5.35376 45.7844C4.65365 45.7844 3.981 45.7226 3.3358 45.599C2.69061 45.4892 2.12091 45.3314 1.62672 45.1254C1.13253 44.9195 0.74129 44.6724 0.45301 44.3841C0.151003 44.1096 0 43.8076 0 43.4781C0 43.231 0.034319 42.9771 0.102957 42.7162C0.171595 42.4691 0.274552 42.2426 0.411828 42.0367C0.549104 41.8308 0.720698 41.6592 0.926612 41.5219C1.1188 41.3847 1.33844 41.316 1.58554 41.316C1.73654 41.316 1.86695 41.3915 1.97677 41.5425C2.10032 41.6935 2.22387 41.8789 2.34742 42.0985C2.47097 42.3319 2.60824 42.579 2.75925 42.8398C2.92398 43.1006 3.12989 43.3409 3.37699 43.5605C3.63781 43.7939 3.94668 43.986 4.3036 44.1371C4.66052 44.2881 5.10666 44.3636 5.64204 44.3636C6.69906 44.3636 7.60508 44.1714 8.3601 43.787C9.12885 43.4026 9.76032 42.8604 10.2545 42.1603C10.7487 41.4602 11.1125 40.6228 11.3459 39.6481C11.5929 38.6872 11.7165 37.6302 11.7165 36.4771V24.4105H7.96887V22.5985Z" fill="#333333"/>
<path d="M39.0824 27.8287C39.0824 26.0304 39.3433 24.4586 39.8649 23.1132C40.3866 21.7542 41.0798 20.6217 41.9446 19.7157C42.8232 18.8096 43.8391 18.1301 44.9922 17.6771C46.1453 17.2241 47.3533 16.9976 48.6163 16.9976C49.8792 16.9976 51.0872 17.2104 52.2403 17.6359C53.3935 18.0478 54.4024 18.6861 55.2673 19.5509C56.1458 20.4158 56.8459 21.514 57.3676 22.8456C57.8892 24.1634 58.1501 25.7284 58.1501 27.5404C58.1501 29.3387 57.8892 30.9311 57.3676 32.3176C56.8459 33.7041 56.1458 34.8709 55.2673 35.8181C54.4024 36.7653 53.3935 37.486 52.2403 37.9802C51.0872 38.4607 49.8792 38.7009 48.6163 38.7009C47.3533 38.7009 46.1453 38.4744 44.9922 38.0214C43.8391 37.5547 42.8232 36.8683 41.9446 35.9623C41.0798 35.0563 40.3866 33.9237 39.8649 32.5647C39.3433 31.2057 39.0824 29.627 39.0824 27.8287ZM51.7461 27.6228C51.7461 26.5246 51.705 25.4675 51.6226 24.4517C51.554 23.4221 51.4098 22.5092 51.1902 21.713C50.9705 20.9168 50.6548 20.2854 50.243 19.8186C49.8312 19.3382 49.2889 19.0979 48.6163 19.0979C47.9436 19.0979 47.4014 19.3519 46.9895 19.8598C46.5777 20.354 46.262 21.0129 46.0423 21.8366C45.8227 22.6465 45.6786 23.5731 45.6099 24.6164C45.5413 25.6597 45.507 26.7305 45.507 27.8287C45.507 28.9269 45.5413 30.0045 45.6099 31.0615C45.6786 32.1048 45.8227 33.0383 46.0423 33.8619C46.262 34.6856 46.5777 35.3514 46.9895 35.8593C47.4014 36.3535 47.9436 36.6006 48.6163 36.6006C49.2889 36.6006 49.8312 36.3398 50.243 35.8181C50.6548 35.2965 50.9705 34.6101 51.1902 33.759C51.4098 32.9079 51.554 31.947 51.6226 30.8762C51.705 29.8054 51.7461 28.721 51.7461 27.6228Z" fill="#333333"/>
<path d="M68.6929 18.7685V33.9855C68.6929 34.7131 68.8301 35.221 69.1047 35.5093C69.3792 35.7838 69.7567 35.9211 70.2372 35.9211C70.6079 35.9211 70.9373 35.8181 71.2256 35.6122C71.5139 35.4063 71.761 35.1729 71.9669 34.9121C72.214 34.6238 72.4268 34.2875 72.6052 33.9031L73.2436 34.1914C73.0376 34.6307 72.7905 35.1112 72.5023 35.6328C72.2277 36.1545 71.8571 36.6418 71.3903 37.0948C70.9236 37.5341 70.3333 37.9047 69.6195 38.2067C68.9194 38.5087 68.0339 38.6597 66.9632 38.6597C66.3592 38.6597 65.7757 38.5705 65.2129 38.3921C64.6638 38.2136 64.1696 37.9322 63.7303 37.5478C63.3048 37.1634 62.9616 36.683 62.7008 36.1064C62.4399 35.5299 62.3095 34.8366 62.3095 34.0267V18.7685H60.0033V17.2859C60.3877 17.2859 60.923 17.1898 61.6094 16.9976C62.2958 16.7917 62.9959 16.4554 63.7097 15.9886C64.4373 15.5219 65.11 14.8973 65.7277 14.1148C66.3454 13.3323 66.7847 12.3645 67.0455 11.2114H68.6929V17.2859H72.0493C73.1475 17.2859 73.6966 17.1006 73.6966 16.7299C73.6966 16.5926 73.6279 16.5034 73.4907 16.4622C73.3534 16.4073 73.1955 16.3455 73.0171 16.2769C72.8523 16.1945 72.7013 16.0847 72.564 15.9474C72.4268 15.8102 72.3581 15.5837 72.3581 15.2679C72.3581 14.8836 72.4748 14.5816 72.7082 14.3619C72.9553 14.1423 73.271 14.0324 73.6554 14.0324C73.9025 14.0324 74.1153 14.0874 74.2937 14.1972C74.4859 14.2933 74.6438 14.4305 74.7673 14.609C74.8909 14.7737 74.9801 14.9659 75.035 15.1856C75.1036 15.4052 75.138 15.6248 75.138 15.8445C75.138 16.7368 74.8771 17.4506 74.3555 17.986C73.8476 18.5076 73.0239 18.7685 71.8845 18.7685H68.6929Z" fill="#333333"/>
<path d="M81.1301 28.92C81.1301 29.3593 81.1918 29.8398 81.3154 30.3614C81.4527 30.8693 81.6448 31.3841 81.8919 31.9058C82.139 32.4274 82.441 32.9285 82.798 33.4089C83.1686 33.8757 83.5873 34.2944 84.054 34.665C84.5345 35.0357 85.063 35.3308 85.6396 35.5504C86.2161 35.7701 86.8476 35.8799 87.534 35.8799C88.0144 35.8799 88.4606 35.825 88.8724 35.7152C89.2842 35.6054 89.6686 35.4543 90.0255 35.2622C90.3824 35.07 90.7256 34.8503 91.0551 34.6032C91.3846 34.3424 91.714 34.0679 92.0435 33.7796L92.5583 34.2738C92.2425 34.6993 91.8376 35.1661 91.3434 35.674C90.8492 36.1819 90.252 36.6624 89.5519 37.1154C88.8518 37.5547 88.035 37.9253 87.1016 38.2273C86.1681 38.5156 85.1042 38.6597 83.9099 38.6597C82.7156 38.6597 81.5487 38.447 80.4094 38.0214C79.2837 37.5821 78.2816 36.9301 77.403 36.0652C76.5244 35.2004 75.8175 34.1228 75.2821 32.8324C74.7605 31.542 74.4996 30.032 74.4996 28.3023C74.4996 27.0531 74.6575 25.9068 74.9732 24.8635C75.289 23.8202 75.7145 22.8799 76.2499 22.0425C76.799 21.2051 77.4305 20.4707 78.1443 19.8392C78.8719 19.2077 79.6337 18.6861 80.4299 18.2743C81.2262 17.8487 82.0361 17.533 82.8597 17.3271C83.6971 17.1074 84.5002 16.9976 85.2689 16.9976C86.2848 16.9976 87.1702 17.1074 87.9252 17.3271C88.6802 17.5467 89.3048 17.8419 89.799 18.2125C90.3069 18.5831 90.6845 19.0156 90.9316 19.5098C91.1786 19.9902 91.3022 20.4981 91.3022 21.0335C91.3022 21.6787 91.1169 22.2621 90.7462 22.7838C90.3756 23.2917 89.8814 23.7379 89.2636 24.1222L81.1301 28.92ZM85.2689 24.74C85.4474 24.6301 85.5915 24.5272 85.7013 24.4311C85.8249 24.3213 85.921 24.1977 85.9896 24.0605C86.0583 23.9094 86.1063 23.731 86.1338 23.5251C86.1749 23.3054 86.1955 23.0377 86.1955 22.722C86.1955 22.3788 86.1544 22.0013 86.072 21.5895C86.0033 21.1639 85.8798 20.7658 85.7013 20.3952C85.5229 20.0245 85.2964 19.7157 85.0218 19.4686C84.7473 19.2215 84.4178 19.0979 84.0334 19.0979C83.5392 19.0979 83.1137 19.2489 82.7568 19.5509C82.4136 19.8392 82.1253 20.2167 81.8919 20.6835C81.6723 21.1502 81.4938 21.6856 81.3566 22.2896C81.233 22.8799 81.1369 23.477 81.0683 24.081C80.9996 24.6851 80.9585 25.2685 80.9447 25.8313C80.931 26.3804 80.9241 26.8472 80.9241 27.2315L85.2689 24.74Z" fill="#333333"/>
<path d="M101.289 36.5594C101.289 36.7379 101.255 36.9507 101.186 37.1978C101.131 37.4449 100.987 37.6782 100.754 37.8979C100.534 38.1175 100.205 38.3028 99.7653 38.4538C99.3397 38.6186 98.7631 38.7009 98.0356 38.7009C97.308 38.7009 96.7383 38.6117 96.3265 38.4332C95.9147 38.2685 95.6058 38.0695 95.3999 37.8361C95.2077 37.6027 95.0842 37.3625 95.0292 37.1154C94.9881 36.8683 94.9675 36.6692 94.9675 36.5182V9.95535C94.9675 9.55725 94.8714 9.21406 94.6792 8.92578C94.5007 8.62378 94.1919 8.47277 93.7526 8.47277C93.5192 8.47277 93.3133 8.51396 93.1348 8.59632C92.9701 8.66496 92.7916 8.77478 92.5995 8.92578L92.1876 8.43159C92.5034 8.17077 92.8534 7.91681 93.2378 7.66971C93.6222 7.40888 94.0409 7.18238 94.4939 6.99019C94.9606 6.79801 95.4548 6.64014 95.9764 6.51659C96.4981 6.39304 97.0472 6.33127 97.6238 6.33127C98.516 6.33127 99.2093 6.45482 99.7035 6.70191C100.198 6.93528 100.561 7.23043 100.795 7.58734C101.028 7.93053 101.165 8.30118 101.207 8.69928C101.262 9.08365 101.289 9.42684 101.289 9.72885V36.5594Z" fill="#333333"/>
<path d="M122.416 41.3572C122.965 41.3572 123.507 41.2543 124.042 41.0483C124.578 40.8562 125.051 40.5267 125.463 40.06C125.889 39.6069 126.232 39.0098 126.493 38.2685C126.754 37.5272 126.884 36.6212 126.884 35.5504C126.884 34.3973 126.596 33.2785 126.019 32.194C125.456 31.1096 124.743 30.0457 123.878 29.0024C123.027 27.9454 122.1 26.9021 121.098 25.8725C120.11 24.8292 119.183 23.7722 118.318 22.7014C117.467 21.6169 116.753 20.505 116.177 19.3656C115.614 18.2125 115.332 17.0113 115.332 15.7621C115.332 14.5129 115.559 13.3872 116.012 12.3851C116.479 11.3693 117.103 10.5113 117.886 9.81121C118.682 9.09738 119.602 8.54827 120.645 8.1639C121.702 7.77953 122.828 7.58734 124.022 7.58734C125.299 7.58734 126.431 7.72462 127.419 7.99917C128.422 8.26 129.266 8.62378 129.952 9.09051C130.652 9.54352 131.181 10.0858 131.538 10.7172C131.895 11.335 132.073 11.9939 132.073 12.694C132.073 13.0235 132.025 13.3667 131.929 13.7236C131.833 14.0668 131.682 14.3825 131.476 14.6708C131.27 14.9591 131.009 15.1993 130.694 15.3915C130.378 15.5837 130.007 15.6798 129.582 15.6798C129.074 15.6798 128.696 15.5288 128.449 15.2267C128.216 14.911 128.037 14.5266 127.914 14.0736C127.804 13.6206 127.708 13.1264 127.625 12.5911C127.543 12.0419 127.413 11.5409 127.234 11.0879C127.056 10.6349 126.788 10.2574 126.431 9.95535C126.074 9.63962 125.553 9.48175 124.866 9.48175C124.496 9.48175 124.125 9.56412 123.754 9.72885C123.397 9.89358 123.068 10.1475 122.766 10.4907C122.478 10.8202 122.244 11.2457 122.066 11.7674C121.887 12.289 121.798 12.9068 121.798 13.6206C121.798 14.4443 121.97 15.2473 122.313 16.0298C122.656 16.8123 123.109 17.5879 123.672 18.3566C124.235 19.1117 124.873 19.8735 125.587 20.6423C126.314 21.3973 127.049 22.166 127.79 22.9485C128.545 23.7173 129.28 24.5135 129.993 25.3371C130.721 26.147 131.366 26.9913 131.929 27.8699C132.492 28.7484 132.945 29.6682 133.288 30.6291C133.631 31.59 133.803 32.599 133.803 33.656C133.803 35.2073 133.501 36.5937 132.897 37.8155C132.307 39.0235 131.497 40.0394 130.467 40.863C129.451 41.7004 128.257 42.3387 126.884 42.778C125.511 43.2173 124.049 43.4369 122.498 43.4369C121.098 43.4369 119.856 43.2585 118.771 42.9016C117.7 42.5584 116.794 42.0985 116.053 41.5219C115.312 40.9454 114.749 40.2865 114.365 39.5452C113.994 38.8176 113.809 38.0626 113.809 37.2801C113.809 36.9507 113.857 36.6006 113.953 36.23C114.063 35.8456 114.214 35.4955 114.406 35.1798C114.612 34.8641 114.866 34.6032 115.168 34.3973C115.47 34.1777 115.82 34.0679 116.218 34.0679C116.63 34.0679 116.959 34.1708 117.206 34.3767C117.467 34.5826 117.673 34.8572 117.824 35.2004C117.975 35.5436 118.098 35.9348 118.195 36.3741C118.291 36.8134 118.394 37.2595 118.503 37.7125C118.613 38.1656 118.751 38.6117 118.915 39.051C119.08 39.4903 119.306 39.8815 119.595 40.2247C119.883 40.5679 120.254 40.8424 120.707 41.0483C121.16 41.2543 121.729 41.3572 122.416 41.3572Z" fill="#333333"/>
<path d="M144.284 36.5182C144.284 36.6967 144.25 36.9163 144.181 37.1772C144.126 37.4243 143.982 37.6645 143.748 37.8979C143.529 38.1175 143.206 38.3028 142.781 38.4538C142.355 38.6186 141.779 38.7009 141.051 38.7009C140.323 38.7009 139.754 38.6117 139.342 38.4332C138.93 38.2685 138.621 38.0695 138.415 37.8361C138.209 37.6027 138.079 37.3625 138.024 37.1154C137.983 36.8683 137.962 36.6692 137.962 36.5182V20.6217C137.962 20.2236 137.866 19.8804 137.674 19.5921C137.496 19.2901 137.187 19.1391 136.747 19.1391C136.514 19.1391 136.315 19.1803 136.15 19.2627C135.986 19.345 135.807 19.4617 135.615 19.6127L135.182 19.0979C135.498 18.8371 135.848 18.5831 136.233 18.336C136.631 18.0752 137.056 17.8487 137.509 17.6565C137.962 17.4643 138.45 17.3065 138.971 17.1829C139.493 17.0594 140.042 16.9976 140.619 16.9976C141.511 16.9976 142.204 17.1212 142.698 17.3683C143.192 17.6016 143.556 17.8968 143.79 18.2537C144.023 18.5969 144.16 18.9675 144.201 19.3656C144.256 19.7637 144.284 20.1138 144.284 20.4158V36.5182ZM137.324 12.3028C137.324 11.9184 137.406 11.5546 137.571 11.2114C137.749 10.8545 137.99 10.5456 138.292 10.2848C138.607 10.024 138.964 9.81808 139.362 9.66707C139.774 9.51607 140.22 9.44057 140.701 9.44057C141.168 9.44057 141.6 9.51607 141.998 9.66707C142.41 9.81808 142.767 10.024 143.069 10.2848C143.371 10.5456 143.604 10.8545 143.769 11.2114C143.948 11.5546 144.037 11.9184 144.037 12.3028C144.037 12.7009 143.948 13.0715 143.769 13.4147C143.604 13.7579 143.371 14.0599 143.069 14.3207C142.767 14.5678 142.41 14.7669 141.998 14.9179C141.6 15.0689 141.168 15.1444 140.701 15.1444C140.22 15.1444 139.774 15.0689 139.362 14.9179C138.964 14.7669 138.607 14.5678 138.292 14.3207C137.99 14.0599 137.749 13.7579 137.571 13.4147C137.406 13.0715 137.324 12.7009 137.324 12.3028Z" fill="#333333"/>
<path d="M155.856 36.5594C155.856 36.7379 155.822 36.9507 155.753 37.1978C155.698 37.4449 155.554 37.6782 155.321 37.8979C155.101 38.1175 154.772 38.3028 154.332 38.4538C153.907 38.6186 153.33 38.7009 152.603 38.7009C151.875 38.7009 151.305 38.6117 150.894 38.4332C150.482 38.2685 150.173 38.0695 149.967 37.8361C149.775 37.6027 149.651 37.3625 149.596 37.1154C149.555 36.8683 149.535 36.6692 149.535 36.5182V9.95535C149.535 9.55725 149.439 9.21406 149.246 8.92578C149.068 8.62378 148.759 8.47277 148.32 8.47277C148.086 8.47277 147.88 8.51396 147.702 8.59632C147.537 8.66496 147.359 8.77478 147.167 8.92578L146.755 8.43159C147.071 8.17077 147.421 7.91681 147.805 7.66971C148.189 7.40888 148.608 7.18238 149.061 6.99019C149.528 6.79801 150.022 6.64014 150.544 6.51659C151.065 6.39304 151.614 6.33127 152.191 6.33127C153.083 6.33127 153.776 6.45482 154.271 6.70191C154.765 6.93528 155.129 7.23043 155.362 7.58734C155.595 7.93053 155.733 8.30118 155.774 8.69928C155.829 9.08365 155.856 9.42684 155.856 9.72885V36.5594Z" fill="#333333"/>
<path d="M172.659 28.117C172.659 26.9227 172.597 25.8039 172.473 24.7606C172.35 23.7035 172.151 22.7838 171.876 22.0013C171.602 21.2051 171.252 20.5805 170.826 20.1275C170.401 19.6608 169.886 19.4274 169.282 19.4274C168.815 19.4274 168.417 19.5441 168.087 19.7774C167.772 19.9971 167.511 20.251 167.305 20.5393C167.099 20.8276 166.948 21.1159 166.852 21.4042C166.756 21.6787 166.708 21.864 166.708 21.9601V28.117C166.708 31.1096 166.955 33.2854 167.449 34.6444C167.957 36.0035 168.698 36.683 169.673 36.683C170.703 36.683 171.458 35.9897 171.938 34.6032C172.419 33.2168 172.659 31.0547 172.659 28.117ZM160.386 9.95535C160.386 9.55725 160.29 9.21406 160.098 8.92578C159.92 8.62378 159.611 8.47277 159.171 8.47277C158.938 8.47277 158.732 8.51396 158.554 8.59632C158.389 8.66496 158.21 8.77478 158.018 8.92578L157.606 8.43159C157.922 8.17077 158.272 7.91681 158.657 7.66971C159.055 7.40888 159.48 7.18238 159.933 6.99019C160.386 6.79801 160.874 6.64014 161.395 6.51659C161.917 6.39304 162.466 6.33127 163.043 6.33127C163.839 6.33127 164.477 6.45482 164.958 6.70191C165.452 6.93528 165.822 7.23043 166.07 7.58734C166.33 7.93053 166.502 8.30804 166.584 8.71987C166.667 9.11797 166.708 9.48861 166.708 9.8318V19.0156C166.873 18.8646 167.085 18.6792 167.346 18.4596C167.607 18.2262 167.936 17.9997 168.335 17.7801C168.733 17.5604 169.206 17.3751 169.755 17.2241C170.318 17.0731 170.977 16.9976 171.732 16.9976C172.611 16.9976 173.489 17.2035 174.368 17.6153C175.246 18.0134 176.036 18.6449 176.736 19.5098C177.436 20.3746 178.006 21.4865 178.445 22.8456C178.884 24.2046 179.104 25.8382 179.104 27.7463C179.104 29.2426 178.898 30.6566 178.486 31.9881C178.088 33.3197 177.491 34.4866 176.695 35.4887C175.898 36.4771 174.903 37.2595 173.709 37.8361C172.515 38.4126 171.128 38.7009 169.549 38.7009C167.834 38.7009 166.385 38.4264 165.205 37.8773C164.038 37.3144 163.097 36.5663 162.384 35.6328C161.67 34.6856 161.155 33.5874 160.839 32.3382C160.537 31.089 160.386 29.7711 160.386 28.3846V9.95535Z" fill="#333333"/>
<path d="M188.411 28.92C188.411 29.3593 188.473 29.8398 188.596 30.3614C188.734 30.8693 188.926 31.3841 189.173 31.9058C189.42 32.4274 189.722 32.9285 190.079 33.4089C190.45 33.8757 190.868 34.2944 191.335 34.665C191.816 35.0357 192.344 35.3308 192.921 35.5504C193.497 35.7701 194.129 35.8799 194.815 35.8799C195.296 35.8799 195.742 35.825 196.154 35.7152C196.565 35.6054 196.95 35.4543 197.307 35.2622C197.664 35.07 198.007 34.8503 198.336 34.6032C198.666 34.3424 198.995 34.0679 199.325 33.7796L199.839 34.2738C199.524 34.6993 199.119 35.1661 198.624 35.674C198.13 36.1819 197.533 36.6624 196.833 37.1154C196.133 37.5547 195.316 37.9253 194.383 38.2273C193.449 38.5156 192.385 38.6597 191.191 38.6597C189.997 38.6597 188.83 38.447 187.69 38.0214C186.565 37.5821 185.563 36.9301 184.684 36.0652C183.806 35.2004 183.099 34.1228 182.563 32.8324C182.042 31.542 181.781 30.032 181.781 28.3023C181.781 27.0531 181.939 25.9068 182.254 24.8635C182.57 23.8202 182.996 22.8799 183.531 22.0425C184.08 21.2051 184.712 20.4707 185.425 19.8392C186.153 19.2077 186.915 18.6861 187.711 18.2743C188.507 17.8487 189.317 17.533 190.141 17.3271C190.978 17.1074 191.781 16.9976 192.55 16.9976C193.566 16.9976 194.451 17.1074 195.206 17.3271C195.961 17.5467 196.586 17.8419 197.08 18.2125C197.588 18.5831 197.966 19.0156 198.213 19.5098C198.46 19.9902 198.583 20.4981 198.583 21.0335C198.583 21.6787 198.398 22.2621 198.027 22.7838C197.657 23.2917 197.163 23.7379 196.545 24.1222L188.411 28.92ZM192.55 24.74C192.729 24.6301 192.873 24.5272 192.982 24.4311C193.106 24.3213 193.202 24.1977 193.271 24.0605C193.339 23.9094 193.387 23.731 193.415 23.5251C193.456 23.3054 193.477 23.0377 193.477 22.722C193.477 22.3788 193.435 22.0013 193.353 21.5895C193.284 21.1639 193.161 20.7658 192.982 20.3952C192.804 20.0245 192.577 19.7157 192.303 19.4686C192.028 19.2215 191.699 19.0979 191.315 19.0979C190.82 19.0979 190.395 19.2489 190.038 19.5509C189.695 19.8392 189.406 20.2167 189.173 20.6835C188.953 21.1502 188.775 21.6856 188.638 22.2896C188.514 22.8799 188.418 23.477 188.349 24.081C188.281 24.6851 188.24 25.2685 188.226 25.8313C188.212 26.3804 188.205 26.8472 188.205 27.2315L192.55 24.74Z" fill="#333333"/>
<path d="M215.283 24.1222C214.857 24.1222 214.5 24.0605 214.212 23.9369C213.924 23.7996 213.691 23.6212 213.512 23.4015C213.334 23.1819 213.203 22.9417 213.121 22.6808C213.038 22.4063 212.997 22.1249 212.997 21.8366C212.997 21.4659 213.018 21.109 213.059 20.7658C213.114 20.4226 213.121 20.1138 213.08 19.8392C213.052 19.5647 212.949 19.345 212.771 19.1803C212.592 19.0156 212.277 18.9332 211.824 18.9332C211.343 18.9332 210.835 19.0705 210.3 19.345C209.764 19.6196 209.277 20.052 208.838 20.6423C208.399 21.2326 208.035 21.9944 207.746 22.9279C207.458 23.8477 207.314 24.9596 207.314 26.2637C207.314 27.7051 207.444 29.023 207.705 30.2173C207.98 31.3978 208.385 32.4068 208.92 33.2442C209.456 34.0816 210.121 34.7337 210.918 35.2004C211.714 35.6534 212.647 35.8799 213.718 35.8799C214.198 35.8799 214.651 35.825 215.077 35.7152C215.516 35.6054 215.928 35.4543 216.312 35.2622C216.697 35.07 217.061 34.8503 217.404 34.6032C217.761 34.3424 218.104 34.0679 218.433 33.7796L218.948 34.2738C218.632 34.6993 218.227 35.1661 217.733 35.674C217.239 36.1819 216.642 36.6624 215.942 37.1154C215.242 37.5547 214.425 37.9253 213.491 38.2273C212.558 38.5156 211.494 38.6597 210.3 38.6597C209.106 38.6597 207.939 38.4332 206.799 37.9802C205.674 37.5135 204.671 36.8408 203.793 35.9623C202.914 35.0837 202.207 34.0198 201.672 32.7706C201.15 31.5077 200.89 30.0731 200.89 28.467C200.89 27.2178 201.047 26.0715 201.363 25.0282C201.679 23.9712 202.104 23.0172 202.64 22.166C203.189 21.3149 203.82 20.5668 204.534 19.9216C205.262 19.2764 206.024 18.741 206.82 18.3155C207.616 17.8762 208.426 17.5467 209.25 17.3271C210.087 17.1074 210.89 16.9976 211.659 16.9976C212.675 16.9976 213.56 17.1143 214.315 17.3477C215.07 17.581 215.695 17.8899 216.189 18.2743C216.697 18.6586 217.074 19.1048 217.321 19.6127C217.569 20.1069 217.692 20.6217 217.692 21.1571C217.692 21.5552 217.637 21.9395 217.527 22.3102C217.431 22.6671 217.28 22.9828 217.074 23.2574C216.882 23.5182 216.635 23.731 216.333 23.8957C216.031 24.0467 215.681 24.1222 215.283 24.1222Z" fill="#333333"/>
<path d="M227.679 22.5985C228.159 21.9533 228.674 21.3012 229.223 20.6423C229.772 19.9696 230.363 19.3656 230.994 18.8302C231.626 18.2949 232.312 17.8556 233.053 17.5124C233.795 17.1692 234.605 16.9976 235.483 16.9976C236.266 16.9976 236.918 17.1555 237.439 17.4712C237.961 17.7732 238.38 18.1439 238.695 18.5831C239.025 19.0087 239.251 19.4548 239.375 19.9216C239.512 20.3883 239.581 20.7864 239.581 21.1159C239.581 21.7199 239.498 22.3514 239.334 23.0103C239.183 23.6555 238.915 24.3007 238.531 24.9459C238.16 25.5773 237.659 26.1951 237.027 26.7991C236.396 27.3894 235.6 27.9316 234.639 28.4258C235.929 31.1576 237.185 33.5119 238.407 35.4887C239.629 37.4517 240.803 39.0647 241.928 40.3276C243.068 41.6043 244.159 42.5447 245.202 43.1487C246.245 43.7527 247.241 44.0547 248.188 44.0547C248.353 44.0547 248.517 44.0341 248.682 43.9929C248.847 43.9517 248.998 43.9037 249.135 43.8488C249.286 43.7939 249.444 43.7252 249.609 43.6429L250 44.3636C249.629 44.5695 249.252 44.7617 248.867 44.9401C248.483 45.1323 248.044 45.297 247.55 45.4343C247.055 45.5716 246.486 45.6814 245.841 45.7638C245.195 45.8461 244.427 45.8873 243.534 45.8873C242.724 45.8873 241.921 45.7912 241.125 45.599C240.343 45.4069 239.553 45.0637 238.757 44.5695C237.961 44.0753 237.151 43.4164 236.327 42.5927C235.517 41.769 234.68 40.7257 233.815 39.4628C232.964 38.1999 232.085 36.6967 231.179 34.9533C230.273 33.2099 229.333 31.1713 228.358 28.8377C229.676 27.863 230.713 26.9638 231.468 26.1402C232.223 25.3028 232.792 24.5478 233.177 23.8751C233.561 23.2025 233.801 22.6053 233.898 22.0837C233.994 21.562 234.042 21.1159 234.042 20.7452C234.042 20.6903 234.035 20.6011 234.021 20.4776C234.007 20.3403 233.959 20.2099 233.877 20.0863C233.808 19.9628 233.698 19.8529 233.547 19.7569C233.41 19.6608 233.211 19.6127 232.95 19.6127C232.442 19.6127 231.928 19.8324 231.406 20.2716C230.884 20.6972 230.383 21.2326 229.903 21.8778C229.436 22.5092 229.011 23.1956 228.626 23.9369C228.242 24.6645 227.926 25.3303 227.679 25.9343V36.5594C227.679 36.7379 227.645 36.9507 227.576 37.1978C227.521 37.4449 227.377 37.6782 227.144 37.8979C226.924 38.1175 226.594 38.3028 226.155 38.4538C225.73 38.6186 225.153 38.7009 224.425 38.7009C223.698 38.7009 223.128 38.6117 222.716 38.4332C222.305 38.2685 221.996 38.0695 221.79 37.8361C221.598 37.6027 221.474 37.3625 221.419 37.1154C221.378 36.8683 221.357 36.6692 221.357 36.5182V9.95535C221.357 9.55725 221.261 9.21406 221.069 8.92578C220.891 8.62378 220.582 8.47277 220.142 8.47277C219.909 8.47277 219.703 8.51396 219.525 8.59632C219.36 8.66496 219.182 8.77478 218.989 8.92578L218.578 8.43159C218.893 8.17077 219.243 7.91681 219.628 7.66971C220.012 7.40888 220.431 7.18238 220.884 6.99019C221.351 6.79801 221.845 6.64014 222.366 6.51659C222.888 6.39304 223.437 6.33127 224.014 6.33127C224.906 6.33127 225.599 6.45482 226.093 6.70191C226.588 6.93528 226.951 7.23043 227.185 7.58734C227.418 7.93053 227.555 8.30118 227.597 8.69928C227.651 9.08365 227.679 9.42684 227.679 9.72885V22.5985Z" fill="#333333"/>
</svg>