<svg xmlns="http://www.w3.org/2000/svg" width="45" height="45" viewBox="0 0 60 61" fill="none">
<path d="M50.3014 45.2422C49.1961 42.6241 47.5921 40.2459 45.5788 38.2402C43.5715 36.2288 41.1938 34.625 38.5768 33.5176C38.5534 33.5059 38.5299 33.5 38.5065 33.4883C42.1569 30.8516 44.5299 26.5566 44.5299 21.7109C44.5299 13.6836 38.026 7.17969 29.9987 7.17969C21.9713 7.17969 15.4674 13.6836 15.4674 21.7109C15.4674 26.5566 17.8405 30.8516 21.4909 33.4941C21.4674 33.5059 21.444 33.5117 21.4206 33.5234C18.7956 34.6309 16.4401 36.2188 14.4186 38.2461C12.4071 40.2533 10.8034 42.6311 9.69595 45.248C8.60799 47.8101 8.02123 50.5569 7.96743 53.3398C7.96587 53.4024 7.97684 53.4646 7.99969 53.5228C8.02255 53.5811 8.05683 53.6341 8.10051 53.6789C8.1442 53.7237 8.1964 53.7593 8.25405 53.7835C8.3117 53.8078 8.37363 53.8203 8.43618 53.8203H11.9518C12.2096 53.8203 12.4147 53.6152 12.4206 53.3633C12.5377 48.8398 14.3542 44.6035 17.5651 41.3926C20.8874 38.0703 25.2995 36.2422 29.9987 36.2422C34.6979 36.2422 39.11 38.0703 42.4323 41.3926C45.6432 44.6035 47.4596 48.8398 47.5768 53.3633C47.5827 53.6211 47.7878 53.8203 48.0456 53.8203H51.5612C51.6237 53.8203 51.6857 53.8078 51.7433 53.7835C51.801 53.7593 51.8532 53.7237 51.8969 53.6789C51.9405 53.6341 51.9748 53.5811 51.9977 53.5228C52.0205 53.4646 52.0315 53.4024 52.0299 53.3398C51.9713 50.5391 51.3913 47.8145 50.3014 45.2422ZM29.9987 31.7891C27.3092 31.7891 24.778 30.7402 22.8737 28.8359C20.9694 26.9316 19.9206 24.4004 19.9206 21.7109C19.9206 19.0215 20.9694 16.4902 22.8737 14.5859C24.778 12.6816 27.3092 11.6328 29.9987 11.6328C32.6881 11.6328 35.2194 12.6816 37.1237 14.5859C39.028 16.4902 40.0768 19.0215 40.0768 21.7109C40.0768 24.4004 39.028 26.9316 37.1237 28.8359C35.2194 30.7402 32.6881 31.7891 29.9987 31.7891Z" fill="white"/>
</svg>